<svg width="237" height="531" viewBox="0 0 237 531" fill="none" xmlns="http://www.w3.org/2000/svg">
<path d="M232.691 16.2858C230.572 33.6628 228.691 56.9712 227.102 62.6365C215.286 104.762 190.159 135.192 172.859 173.797C154.094 215.673 121.172 248.34 97.2363 286.319C76.5322 319.17 45.6672 400.627 26.6974 434.443C15.7506 453.956 10.5749 467.682 6.17214 490.386C3.32645 505.061 -3.75519 507.035 -9.15595 511.29C-11.3922 524.261 -16 535.379 -16 529.284C-16 518.513 -13.0048 514.322 -9.15595 511.29C-7.89863 503.997 -7.39095 496.119 -8.8733 490.386L-8.87324 380.238C-8.87324 306.65 -11.0598 216.969 -8.87324 144.305C-8.11985 119.268 -8.87324 94.0446 -8.87324 68.9885C-8.87324 48.0618 -13.8996 11.5629 -8.87324 -8.597C-4.75929 -25.0973 -11.9807 -4.89883 6.17214 -8.597C30.6484 -13.5834 53.3427 -15.8565 78.2316 -15.8565C109.489 -15.8565 189.548 -15.6296 220.767 -15.6296C227.915 -13.2892 231.334 8.5852 232.691 16.2858Z" fill="#AD5617"/>
</svg>
